<mxfile host="app.diagrams.net" agent="Mozilla/5.0 (Windows NT 10.0; Win64; x64) AppleWebKit/537.36 (KHTML, like Gecko) Chrome/135.0.0.0 Safari/537.36 Edg/135.0.0.0" version="26.2.9">
  <diagram name="PÃ¡gina-1" id="ZvY7RlKto1usyJ_V8Ote">
    <mxGraphModel dx="1950" dy="836" grid="1" gridSize="10" guides="1" tooltips="1" connect="1" arrows="0" fold="1" page="1" pageScale="1" pageWidth="827" pageHeight="1169" math="0" shadow="0">
      <root>
        <mxCell id="0" />
        <mxCell id="1" parent="0" />
        <mxCell id="pYvZ6EQq_U6aykrmB1s--83" style="edgeStyle=none;rounded=0;orthogonalLoop=1;jettySize=auto;html=1;exitX=0.3;exitY=1;exitDx=10;exitDy=0;exitPerimeter=0;endArrow=oval;endFill=1;fontSize=15;" parent="1" source="pYvZ6EQq_U6aykrmB1s--9" edge="1">
          <mxGeometry relative="1" as="geometry">
            <mxPoint x="210" y="350" as="targetPoint" />
          </mxGeometry>
        </mxCell>
        <mxCell id="pYvZ6EQq_U6aykrmB1s--9" value="&lt;font face=&quot;Helvetica&quot;&gt;Mux&lt;/font&gt;" style="shadow=0;dashed=0;align=center;html=1;strokeWidth=1;shape=mxgraph.electrical.abstract.mux2;whiteSpace=wrap;rotation=90;fontSize=15;fillColor=#dae8fc;strokeColor=#6c8ebf;horizontal=0;" parent="1" vertex="1">
          <mxGeometry x="237" y="490" width="50" height="105" as="geometry" />
        </mxCell>
        <mxCell id="pYvZ6EQq_U6aykrmB1s--128" value="A7" style="edgeStyle=none;rounded=0;orthogonalLoop=1;jettySize=auto;html=1;exitX=0.25;exitY=0;exitDx=0;exitDy=0;endArrow=none;startFill=1;startArrow=classic;fontSize=15;" parent="1" source="pYvZ6EQq_U6aykrmB1s--24" edge="1">
          <mxGeometry x="1" y="10" relative="1" as="geometry">
            <mxPoint x="233" y="290" as="targetPoint" />
            <mxPoint x="10" y="-10" as="offset" />
          </mxGeometry>
        </mxCell>
        <mxCell id="pYvZ6EQq_U6aykrmB1s--129" value="B7" style="edgeStyle=none;rounded=0;orthogonalLoop=1;jettySize=auto;html=1;exitX=0.75;exitY=0;exitDx=0;exitDy=0;endArrow=none;startFill=1;startArrow=classic;fontSize=15;" parent="1" source="pYvZ6EQq_U6aykrmB1s--24" edge="1">
          <mxGeometry x="1" y="-10" relative="1" as="geometry">
            <mxPoint x="258" y="290" as="targetPoint" />
            <mxPoint x="-8" y="-10" as="offset" />
          </mxGeometry>
        </mxCell>
        <mxCell id="pYvZ6EQq_U6aykrmB1s--24" value="Full&lt;div&gt;Adder&lt;/div&gt;" style="whiteSpace=wrap;html=1;aspect=fixed;fontSize=15;fillColor=#dae8fc;strokeColor=#6c8ebf;" parent="1" vertex="1">
          <mxGeometry x="220" y="383" width="50" height="50" as="geometry" />
        </mxCell>
        <mxCell id="pYvZ6EQq_U6aykrmB1s--134" style="edgeStyle=none;rounded=0;orthogonalLoop=1;jettySize=auto;html=1;exitX=0.25;exitY=0;exitDx=0;exitDy=0;endArrow=oval;endFill=1;" parent="1" edge="1">
          <mxGeometry relative="1" as="geometry">
            <mxPoint x="232" y="340" as="targetPoint" />
            <mxPoint x="278.5" y="453" as="sourcePoint" />
            <Array as="points">
              <mxPoint x="279" y="340" />
            </Array>
          </mxGeometry>
        </mxCell>
        <mxCell id="pYvZ6EQq_U6aykrmB1s--135" style="edgeStyle=none;rounded=0;orthogonalLoop=1;jettySize=auto;html=1;exitX=0.75;exitY=0;exitDx=0;exitDy=0;endArrow=oval;endFill=1;" parent="1" edge="1">
          <mxGeometry relative="1" as="geometry">
            <mxPoint x="258" y="320" as="targetPoint" />
            <mxPoint x="301.5" y="453" as="sourcePoint" />
            <Array as="points">
              <mxPoint x="302" y="320" />
            </Array>
          </mxGeometry>
        </mxCell>
        <mxCell id="pYvZ6EQq_U6aykrmB1s--31" value="Full&lt;div&gt;Adder&lt;/div&gt;" style="whiteSpace=wrap;html=1;aspect=fixed;fontSize=15;fillColor=#dae8fc;strokeColor=#6c8ebf;" parent="1" vertex="1">
          <mxGeometry x="264" y="453" width="50" height="50" as="geometry" />
        </mxCell>
        <mxCell id="pYvZ6EQq_U6aykrmB1s--48" style="edgeStyle=orthogonalEdgeStyle;rounded=0;orthogonalLoop=1;jettySize=auto;html=1;exitX=0.5;exitY=1;exitDx=0;exitDy=0;entryX=0;entryY=0.6357142857142857;entryDx=0;entryDy=3;entryPerimeter=0;endArrow=none;startFill=0;fontSize=15;" parent="1" source="pYvZ6EQq_U6aykrmB1s--24" target="pYvZ6EQq_U6aykrmB1s--9" edge="1">
          <mxGeometry relative="1" as="geometry" />
        </mxCell>
        <mxCell id="pYvZ6EQq_U6aykrmB1s--49" style="edgeStyle=orthogonalEdgeStyle;rounded=0;orthogonalLoop=1;jettySize=auto;html=1;exitX=0.5;exitY=1;exitDx=0;exitDy=0;entryX=0;entryY=0.2119047619047619;entryDx=0;entryDy=3;entryPerimeter=0;endArrow=none;startFill=0;fontSize=15;" parent="1" source="pYvZ6EQq_U6aykrmB1s--31" target="pYvZ6EQq_U6aykrmB1s--9" edge="1">
          <mxGeometry relative="1" as="geometry" />
        </mxCell>
        <mxCell id="pYvZ6EQq_U6aykrmB1s--78" style="edgeStyle=none;rounded=0;orthogonalLoop=1;jettySize=auto;html=1;exitX=0.3;exitY=1;exitDx=10;exitDy=0;exitPerimeter=0;endArrow=oval;endFill=1;fontSize=15;" parent="1" source="pYvZ6EQq_U6aykrmB1s--50" edge="1">
          <mxGeometry relative="1" as="geometry">
            <mxPoint x="330" y="350" as="targetPoint" />
          </mxGeometry>
        </mxCell>
        <mxCell id="pYvZ6EQq_U6aykrmB1s--50" value="&lt;font face=&quot;Helvetica&quot;&gt;Mux&lt;/font&gt;" style="shadow=0;dashed=0;align=center;html=1;strokeWidth=1;shape=mxgraph.electrical.abstract.mux2;whiteSpace=wrap;rotation=90;fontSize=15;fillColor=#dae8fc;strokeColor=#6c8ebf;horizontal=0;" parent="1" vertex="1">
          <mxGeometry x="357" y="490" width="50" height="105" as="geometry" />
        </mxCell>
        <mxCell id="pYvZ6EQq_U6aykrmB1s--106" style="edgeStyle=none;rounded=0;orthogonalLoop=1;jettySize=auto;html=1;exitX=0;exitY=0.5;exitDx=0;exitDy=0;entryX=1;entryY=0.5;entryDx=0;entryDy=0;endArrow=none;startFill=0;fontSize=15;" parent="1" source="pYvZ6EQq_U6aykrmB1s--51" target="pYvZ6EQq_U6aykrmB1s--24" edge="1">
          <mxGeometry relative="1" as="geometry" />
        </mxCell>
        <mxCell id="pYvZ6EQq_U6aykrmB1s--126" value="A6" style="edgeStyle=none;rounded=0;orthogonalLoop=1;jettySize=auto;html=1;exitX=0.25;exitY=0;exitDx=0;exitDy=0;endArrow=none;startFill=1;startArrow=classic;fontSize=15;" parent="1" source="pYvZ6EQq_U6aykrmB1s--51" edge="1">
          <mxGeometry x="1" y="10" relative="1" as="geometry">
            <mxPoint x="353" y="290" as="targetPoint" />
            <mxPoint x="10" y="-10" as="offset" />
          </mxGeometry>
        </mxCell>
        <mxCell id="pYvZ6EQq_U6aykrmB1s--127" value="B6" style="edgeStyle=none;rounded=0;orthogonalLoop=1;jettySize=auto;html=1;exitX=0.75;exitY=0;exitDx=0;exitDy=0;endArrow=none;startFill=1;startArrow=classic;fontSize=15;" parent="1" source="pYvZ6EQq_U6aykrmB1s--51" edge="1">
          <mxGeometry x="1" y="10" relative="1" as="geometry">
            <mxPoint x="378" y="290" as="targetPoint" />
            <mxPoint x="10" y="-10" as="offset" />
          </mxGeometry>
        </mxCell>
        <mxCell id="pYvZ6EQq_U6aykrmB1s--51" value="Full&lt;div&gt;Adder&lt;/div&gt;" style="whiteSpace=wrap;html=1;aspect=fixed;fontSize=15;fillColor=#dae8fc;strokeColor=#6c8ebf;" parent="1" vertex="1">
          <mxGeometry x="340" y="383" width="50" height="50" as="geometry" />
        </mxCell>
        <mxCell id="pYvZ6EQq_U6aykrmB1s--107" style="edgeStyle=none;rounded=0;orthogonalLoop=1;jettySize=auto;html=1;exitX=0;exitY=0.5;exitDx=0;exitDy=0;entryX=1;entryY=0.5;entryDx=0;entryDy=0;endArrow=none;startFill=0;fontSize=15;" parent="1" source="pYvZ6EQq_U6aykrmB1s--52" target="pYvZ6EQq_U6aykrmB1s--31" edge="1">
          <mxGeometry relative="1" as="geometry" />
        </mxCell>
        <mxCell id="pYvZ6EQq_U6aykrmB1s--132" style="edgeStyle=none;rounded=0;orthogonalLoop=1;jettySize=auto;html=1;exitX=0.25;exitY=0;exitDx=0;exitDy=0;endArrow=oval;endFill=1;" parent="1" edge="1">
          <mxGeometry relative="1" as="geometry">
            <mxPoint x="352" y="340" as="targetPoint" />
            <mxPoint x="398.5" y="453" as="sourcePoint" />
            <Array as="points">
              <mxPoint x="399" y="340" />
            </Array>
          </mxGeometry>
        </mxCell>
        <mxCell id="pYvZ6EQq_U6aykrmB1s--133" style="edgeStyle=none;rounded=0;orthogonalLoop=1;jettySize=auto;html=1;exitX=0.75;exitY=0;exitDx=0;exitDy=0;endArrow=oval;endFill=1;" parent="1" edge="1">
          <mxGeometry relative="1" as="geometry">
            <mxPoint x="378" y="320" as="targetPoint" />
            <mxPoint x="421.5" y="453" as="sourcePoint" />
            <Array as="points">
              <mxPoint x="422" y="320" />
            </Array>
          </mxGeometry>
        </mxCell>
        <mxCell id="pYvZ6EQq_U6aykrmB1s--52" value="Full&lt;div&gt;Adder&lt;/div&gt;" style="whiteSpace=wrap;html=1;aspect=fixed;fontSize=15;fillColor=#dae8fc;strokeColor=#6c8ebf;" parent="1" vertex="1">
          <mxGeometry x="384" y="453" width="50" height="50" as="geometry" />
        </mxCell>
        <mxCell id="pYvZ6EQq_U6aykrmB1s--53" style="edgeStyle=orthogonalEdgeStyle;rounded=0;orthogonalLoop=1;jettySize=auto;html=1;exitX=0.5;exitY=1;exitDx=0;exitDy=0;entryX=0;entryY=0.6357142857142857;entryDx=0;entryDy=3;entryPerimeter=0;endArrow=none;startFill=0;fontSize=15;" parent="1" source="pYvZ6EQq_U6aykrmB1s--51" target="pYvZ6EQq_U6aykrmB1s--50" edge="1">
          <mxGeometry relative="1" as="geometry" />
        </mxCell>
        <mxCell id="pYvZ6EQq_U6aykrmB1s--54" style="edgeStyle=orthogonalEdgeStyle;rounded=0;orthogonalLoop=1;jettySize=auto;html=1;exitX=0.5;exitY=1;exitDx=0;exitDy=0;entryX=0;entryY=0.2119047619047619;entryDx=0;entryDy=3;entryPerimeter=0;endArrow=none;startFill=0;fontSize=15;" parent="1" source="pYvZ6EQq_U6aykrmB1s--52" target="pYvZ6EQq_U6aykrmB1s--50" edge="1">
          <mxGeometry relative="1" as="geometry" />
        </mxCell>
        <mxCell id="pYvZ6EQq_U6aykrmB1s--79" style="edgeStyle=none;rounded=0;orthogonalLoop=1;jettySize=auto;html=1;exitX=0.3;exitY=1;exitDx=10;exitDy=0;exitPerimeter=0;endArrow=oval;endFill=1;fontSize=15;" parent="1" source="pYvZ6EQq_U6aykrmB1s--55" edge="1">
          <mxGeometry relative="1" as="geometry">
            <mxPoint x="450" y="350" as="targetPoint" />
          </mxGeometry>
        </mxCell>
        <mxCell id="pYvZ6EQq_U6aykrmB1s--55" value="&lt;font face=&quot;Helvetica&quot;&gt;Mux&lt;/font&gt;" style="shadow=0;dashed=0;align=center;html=1;strokeWidth=1;shape=mxgraph.electrical.abstract.mux2;whiteSpace=wrap;rotation=90;fontSize=15;fillColor=#dae8fc;strokeColor=#6c8ebf;horizontal=0;" parent="1" vertex="1">
          <mxGeometry x="477" y="490" width="50" height="105" as="geometry" />
        </mxCell>
        <mxCell id="pYvZ6EQq_U6aykrmB1s--105" style="edgeStyle=none;rounded=0;orthogonalLoop=1;jettySize=auto;html=1;exitX=0;exitY=0.5;exitDx=0;exitDy=0;entryX=1;entryY=0.5;entryDx=0;entryDy=0;endArrow=none;startFill=0;fontSize=15;" parent="1" source="pYvZ6EQq_U6aykrmB1s--56" target="pYvZ6EQq_U6aykrmB1s--51" edge="1">
          <mxGeometry relative="1" as="geometry" />
        </mxCell>
        <mxCell id="pYvZ6EQq_U6aykrmB1s--124" value="A5" style="edgeStyle=none;rounded=0;orthogonalLoop=1;jettySize=auto;html=1;exitX=0.25;exitY=0;exitDx=0;exitDy=0;endArrow=none;startFill=1;startArrow=classic;fontSize=15;" parent="1" source="pYvZ6EQq_U6aykrmB1s--56" edge="1">
          <mxGeometry x="1" y="10" relative="1" as="geometry">
            <mxPoint x="473" y="290" as="targetPoint" />
            <mxPoint x="10" y="-10" as="offset" />
          </mxGeometry>
        </mxCell>
        <mxCell id="pYvZ6EQq_U6aykrmB1s--125" value="B5" style="edgeStyle=none;rounded=0;orthogonalLoop=1;jettySize=auto;html=1;exitX=0.75;exitY=0;exitDx=0;exitDy=0;endArrow=none;startFill=1;startArrow=classic;fontSize=15;" parent="1" source="pYvZ6EQq_U6aykrmB1s--56" edge="1">
          <mxGeometry x="1" y="-10" relative="1" as="geometry">
            <mxPoint x="498" y="290" as="targetPoint" />
            <mxPoint x="-8" y="-10" as="offset" />
          </mxGeometry>
        </mxCell>
        <mxCell id="pYvZ6EQq_U6aykrmB1s--56" value="Full&lt;div&gt;Adder&lt;/div&gt;" style="whiteSpace=wrap;html=1;aspect=fixed;fontSize=15;fillColor=#dae8fc;strokeColor=#6c8ebf;" parent="1" vertex="1">
          <mxGeometry x="460" y="383" width="50" height="50" as="geometry" />
        </mxCell>
        <mxCell id="pYvZ6EQq_U6aykrmB1s--108" style="edgeStyle=none;rounded=0;orthogonalLoop=1;jettySize=auto;html=1;exitX=0;exitY=0.5;exitDx=0;exitDy=0;entryX=1;entryY=0.5;entryDx=0;entryDy=0;endArrow=none;startFill=0;fontSize=15;" parent="1" source="pYvZ6EQq_U6aykrmB1s--57" target="pYvZ6EQq_U6aykrmB1s--52" edge="1">
          <mxGeometry relative="1" as="geometry" />
        </mxCell>
        <mxCell id="pYvZ6EQq_U6aykrmB1s--130" style="edgeStyle=none;rounded=0;orthogonalLoop=1;jettySize=auto;html=1;exitX=0.25;exitY=0;exitDx=0;exitDy=0;endArrow=oval;endFill=1;" parent="1" edge="1">
          <mxGeometry relative="1" as="geometry">
            <mxPoint x="472" y="340" as="targetPoint" />
            <mxPoint x="518.5" y="453" as="sourcePoint" />
            <Array as="points">
              <mxPoint x="519" y="340" />
            </Array>
          </mxGeometry>
        </mxCell>
        <mxCell id="pYvZ6EQq_U6aykrmB1s--131" style="edgeStyle=none;rounded=0;orthogonalLoop=1;jettySize=auto;html=1;exitX=0.75;exitY=0;exitDx=0;exitDy=0;endArrow=oval;endFill=1;" parent="1" edge="1">
          <mxGeometry relative="1" as="geometry">
            <mxPoint x="498" y="320" as="targetPoint" />
            <mxPoint x="541.5" y="453" as="sourcePoint" />
            <Array as="points">
              <mxPoint x="542" y="320" />
            </Array>
          </mxGeometry>
        </mxCell>
        <mxCell id="pYvZ6EQq_U6aykrmB1s--57" value="Full&lt;div&gt;Adder&lt;/div&gt;" style="whiteSpace=wrap;html=1;aspect=fixed;fontSize=15;fillColor=#dae8fc;strokeColor=#6c8ebf;" parent="1" vertex="1">
          <mxGeometry x="504" y="453" width="50" height="50" as="geometry" />
        </mxCell>
        <mxCell id="pYvZ6EQq_U6aykrmB1s--58" style="edgeStyle=orthogonalEdgeStyle;rounded=0;orthogonalLoop=1;jettySize=auto;html=1;exitX=0.5;exitY=1;exitDx=0;exitDy=0;entryX=0;entryY=0.6357142857142857;entryDx=0;entryDy=3;entryPerimeter=0;endArrow=none;startFill=0;fontSize=15;" parent="1" source="pYvZ6EQq_U6aykrmB1s--56" target="pYvZ6EQq_U6aykrmB1s--55" edge="1">
          <mxGeometry relative="1" as="geometry" />
        </mxCell>
        <mxCell id="pYvZ6EQq_U6aykrmB1s--59" style="edgeStyle=orthogonalEdgeStyle;rounded=0;orthogonalLoop=1;jettySize=auto;html=1;exitX=0.5;exitY=1;exitDx=0;exitDy=0;entryX=0;entryY=0.2119047619047619;entryDx=0;entryDy=3;entryPerimeter=0;endArrow=none;startFill=0;fontSize=15;" parent="1" source="pYvZ6EQq_U6aykrmB1s--57" target="pYvZ6EQq_U6aykrmB1s--55" edge="1">
          <mxGeometry relative="1" as="geometry" />
        </mxCell>
        <mxCell id="pYvZ6EQq_U6aykrmB1s--80" style="edgeStyle=none;rounded=0;orthogonalLoop=1;jettySize=auto;html=1;exitX=0.3;exitY=1;exitDx=10;exitDy=0;exitPerimeter=0;endArrow=none;endFill=1;startFill=0;fontSize=15;" parent="1" source="pYvZ6EQq_U6aykrmB1s--60" edge="1">
          <mxGeometry relative="1" as="geometry">
            <mxPoint x="570" y="350" as="targetPoint" />
          </mxGeometry>
        </mxCell>
        <mxCell id="pYvZ6EQq_U6aykrmB1s--60" value="&lt;font face=&quot;Helvetica&quot;&gt;Mux&lt;/font&gt;" style="shadow=0;dashed=0;align=center;html=1;strokeWidth=1;shape=mxgraph.electrical.abstract.mux2;whiteSpace=wrap;rotation=90;fontSize=15;fillColor=#dae8fc;strokeColor=#6c8ebf;horizontal=0;" parent="1" vertex="1">
          <mxGeometry x="597" y="490" width="50" height="105" as="geometry" />
        </mxCell>
        <mxCell id="pYvZ6EQq_U6aykrmB1s--104" style="edgeStyle=none;rounded=0;orthogonalLoop=1;jettySize=auto;html=1;exitX=0;exitY=0.5;exitDx=0;exitDy=0;entryX=1;entryY=0.5;entryDx=0;entryDy=0;endArrow=none;startFill=0;fontSize=15;" parent="1" source="pYvZ6EQq_U6aykrmB1s--61" target="pYvZ6EQq_U6aykrmB1s--56" edge="1">
          <mxGeometry relative="1" as="geometry" />
        </mxCell>
        <mxCell id="pYvZ6EQq_U6aykrmB1s--110" value="1" style="edgeStyle=none;rounded=0;orthogonalLoop=1;jettySize=auto;html=1;exitX=1;exitY=0.5;exitDx=0;exitDy=0;endArrow=diamond;endFill=1;fontSize=15;" parent="1" source="pYvZ6EQq_U6aykrmB1s--61" edge="1">
          <mxGeometry x="0.7059" y="-10" relative="1" as="geometry">
            <mxPoint x="670" y="380" as="targetPoint" />
            <Array as="points">
              <mxPoint x="670" y="408" />
            </Array>
            <mxPoint as="offset" />
          </mxGeometry>
        </mxCell>
        <mxCell id="pYvZ6EQq_U6aykrmB1s--120" value="B4" style="edgeStyle=none;rounded=0;orthogonalLoop=1;jettySize=auto;html=1;exitX=0.75;exitY=0;exitDx=0;exitDy=0;endArrow=none;startFill=1;startArrow=classic;fontSize=15;" parent="1" source="pYvZ6EQq_U6aykrmB1s--61" edge="1">
          <mxGeometry x="1" y="-10" relative="1" as="geometry">
            <mxPoint x="618" y="290" as="targetPoint" />
            <mxPoint x="-8" y="-10" as="offset" />
          </mxGeometry>
        </mxCell>
        <mxCell id="pYvZ6EQq_U6aykrmB1s--121" value="A4" style="edgeStyle=none;rounded=0;orthogonalLoop=1;jettySize=auto;html=1;exitX=0.25;exitY=0;exitDx=0;exitDy=0;endArrow=none;startFill=1;startArrow=classic;fontSize=15;" parent="1" source="pYvZ6EQq_U6aykrmB1s--61" edge="1">
          <mxGeometry x="1" y="10" relative="1" as="geometry">
            <mxPoint x="593" y="290" as="targetPoint" />
            <mxPoint x="10" y="-10" as="offset" />
          </mxGeometry>
        </mxCell>
        <mxCell id="pYvZ6EQq_U6aykrmB1s--61" value="Full&lt;div&gt;Adder&lt;/div&gt;" style="whiteSpace=wrap;html=1;aspect=fixed;fontSize=15;fillColor=#dae8fc;strokeColor=#6c8ebf;" parent="1" vertex="1">
          <mxGeometry x="580" y="383" width="50" height="50" as="geometry" />
        </mxCell>
        <mxCell id="pYvZ6EQq_U6aykrmB1s--109" style="edgeStyle=none;rounded=0;orthogonalLoop=1;jettySize=auto;html=1;exitX=0;exitY=0.5;exitDx=0;exitDy=0;entryX=1;entryY=0.5;entryDx=0;entryDy=0;endArrow=none;startFill=0;fontSize=15;" parent="1" source="pYvZ6EQq_U6aykrmB1s--62" target="pYvZ6EQq_U6aykrmB1s--57" edge="1">
          <mxGeometry relative="1" as="geometry" />
        </mxCell>
        <mxCell id="pYvZ6EQq_U6aykrmB1s--111" value="0" style="edgeStyle=none;rounded=0;orthogonalLoop=1;jettySize=auto;html=1;exitX=1;exitY=0.5;exitDx=0;exitDy=0;endArrow=diamond;endFill=1;fontSize=15;" parent="1" source="pYvZ6EQq_U6aykrmB1s--62" edge="1">
          <mxGeometry x="0.3103" y="-10" relative="1" as="geometry">
            <mxPoint x="700" y="510" as="targetPoint" />
            <Array as="points">
              <mxPoint x="700" y="478" />
            </Array>
            <mxPoint as="offset" />
          </mxGeometry>
        </mxCell>
        <mxCell id="pYvZ6EQq_U6aykrmB1s--122" style="edgeStyle=none;rounded=0;orthogonalLoop=1;jettySize=auto;html=1;exitX=0.25;exitY=0;exitDx=0;exitDy=0;endArrow=oval;endFill=1;" parent="1" edge="1">
          <mxGeometry relative="1" as="geometry">
            <mxPoint x="593" y="340" as="targetPoint" />
            <mxPoint x="639.5" y="453" as="sourcePoint" />
            <Array as="points">
              <mxPoint x="640" y="340" />
            </Array>
          </mxGeometry>
        </mxCell>
        <mxCell id="pYvZ6EQq_U6aykrmB1s--123" style="edgeStyle=none;rounded=0;orthogonalLoop=1;jettySize=auto;html=1;exitX=0.75;exitY=0;exitDx=0;exitDy=0;endArrow=oval;endFill=1;" parent="1" edge="1">
          <mxGeometry relative="1" as="geometry">
            <mxPoint x="618" y="320" as="targetPoint" />
            <mxPoint x="659.5" y="453" as="sourcePoint" />
            <Array as="points">
              <mxPoint x="658" y="320" />
            </Array>
          </mxGeometry>
        </mxCell>
        <mxCell id="pYvZ6EQq_U6aykrmB1s--62" value="Full&lt;div&gt;Adder&lt;/div&gt;" style="whiteSpace=wrap;html=1;aspect=fixed;fontSize=15;fillColor=#dae8fc;strokeColor=#6c8ebf;" parent="1" vertex="1">
          <mxGeometry x="624" y="453" width="50" height="50" as="geometry" />
        </mxCell>
        <mxCell id="pYvZ6EQq_U6aykrmB1s--63" style="edgeStyle=orthogonalEdgeStyle;rounded=0;orthogonalLoop=1;jettySize=auto;html=1;exitX=0.5;exitY=1;exitDx=0;exitDy=0;entryX=0;entryY=0.6357142857142857;entryDx=0;entryDy=3;entryPerimeter=0;endArrow=none;startFill=0;fontSize=15;" parent="1" source="pYvZ6EQq_U6aykrmB1s--61" target="pYvZ6EQq_U6aykrmB1s--60" edge="1">
          <mxGeometry relative="1" as="geometry" />
        </mxCell>
        <mxCell id="pYvZ6EQq_U6aykrmB1s--64" style="edgeStyle=orthogonalEdgeStyle;rounded=0;orthogonalLoop=1;jettySize=auto;html=1;exitX=0.5;exitY=1;exitDx=0;exitDy=0;entryX=0;entryY=0.2119047619047619;entryDx=0;entryDy=3;entryPerimeter=0;endArrow=none;startFill=0;fontSize=15;" parent="1" source="pYvZ6EQq_U6aykrmB1s--62" target="pYvZ6EQq_U6aykrmB1s--60" edge="1">
          <mxGeometry relative="1" as="geometry" />
        </mxCell>
        <mxCell id="pYvZ6EQq_U6aykrmB1s--82" style="edgeStyle=none;rounded=0;orthogonalLoop=1;jettySize=auto;html=1;exitX=0.3;exitY=1;exitDx=10;exitDy=0;exitPerimeter=0;endArrow=none;startFill=0;fontSize=15;" parent="1" source="pYvZ6EQq_U6aykrmB1s--67" edge="1">
          <mxGeometry relative="1" as="geometry">
            <mxPoint x="200" y="350" as="targetPoint" />
            <Array as="points">
              <mxPoint x="89" y="350" />
            </Array>
          </mxGeometry>
        </mxCell>
        <mxCell id="pYvZ6EQq_U6aykrmB1s--89" value="Cout" style="edgeStyle=none;rounded=0;orthogonalLoop=1;jettySize=auto;html=1;exitX=1;exitY=0.5;exitDx=0;exitDy=-5;exitPerimeter=0;fontSize=15;movable=1;resizable=1;rotatable=1;deletable=1;editable=1;locked=0;connectable=1;" parent="1" edge="1">
          <mxGeometry x="0.5122" y="-20" relative="1" as="geometry">
            <mxPoint x="32" y="430" as="targetPoint" />
            <mxPoint x="66" y="429.5" as="sourcePoint" />
            <mxPoint as="offset" />
          </mxGeometry>
        </mxCell>
        <mxCell id="pYvZ6EQq_U6aykrmB1s--67" value="Mux" style="shadow=0;dashed=0;align=center;html=1;strokeWidth=1;shape=mxgraph.electrical.abstract.mux2;whiteSpace=wrap;rotation=-180;fontSize=15;fillColor=#dae8fc;strokeColor=#6c8ebf;verticalAlign=middle;horizontal=0;" parent="1" vertex="1">
          <mxGeometry x="64" y="372" width="50" height="105" as="geometry" />
        </mxCell>
        <mxCell id="pYvZ6EQq_U6aykrmB1s--68" style="edgeStyle=orthogonalEdgeStyle;rounded=0;orthogonalLoop=1;jettySize=auto;html=1;exitX=0;exitY=0.5;exitDx=0;exitDy=0;entryX=0;entryY=0.6357142857142857;entryDx=0;entryDy=3;entryPerimeter=0;endArrow=none;startFill=0;fontSize=15;" parent="1" source="pYvZ6EQq_U6aykrmB1s--24" target="pYvZ6EQq_U6aykrmB1s--67" edge="1">
          <mxGeometry relative="1" as="geometry" />
        </mxCell>
        <mxCell id="pYvZ6EQq_U6aykrmB1s--69" style="edgeStyle=orthogonalEdgeStyle;rounded=0;orthogonalLoop=1;jettySize=auto;html=1;exitX=0;exitY=0.5;exitDx=0;exitDy=0;entryX=0;entryY=0.2119047619047619;entryDx=0;entryDy=3;entryPerimeter=0;endArrow=none;startFill=0;fontSize=15;" parent="1" source="pYvZ6EQq_U6aykrmB1s--31" target="pYvZ6EQq_U6aykrmB1s--67" edge="1">
          <mxGeometry relative="1" as="geometry" />
        </mxCell>
        <mxCell id="pYvZ6EQq_U6aykrmB1s--84" style="edgeStyle=none;rounded=0;orthogonalLoop=1;jettySize=auto;html=1;exitX=0;exitY=0.5;exitDx=0;exitDy=0;endArrow=oval;endFill=1;fontSize=15;" parent="1" source="pYvZ6EQq_U6aykrmB1s--72" edge="1">
          <mxGeometry relative="1" as="geometry">
            <mxPoint x="570" y="350" as="targetPoint" />
            <Array as="points">
              <mxPoint x="710" y="405" />
              <mxPoint x="710" y="350" />
            </Array>
          </mxGeometry>
        </mxCell>
        <mxCell id="pYvZ6EQq_U6aykrmB1s--96" value="S3" style="edgeStyle=none;rounded=0;orthogonalLoop=1;jettySize=auto;html=1;exitX=0.5;exitY=1;exitDx=0;exitDy=0;fontSize=15;" parent="1" source="pYvZ6EQq_U6aykrmB1s--72" edge="1">
          <mxGeometry x="1" y="10" relative="1" as="geometry">
            <mxPoint x="775" y="580" as="targetPoint" />
            <mxPoint x="-10" y="10" as="offset" />
          </mxGeometry>
        </mxCell>
        <mxCell id="pYvZ6EQq_U6aykrmB1s--118" value="A3" style="edgeStyle=none;rounded=0;orthogonalLoop=1;jettySize=auto;html=1;exitX=0.25;exitY=0;exitDx=0;exitDy=0;endArrow=none;startFill=1;startArrow=classic;fontSize=15;" parent="1" source="pYvZ6EQq_U6aykrmB1s--72" edge="1">
          <mxGeometry x="1" y="10" relative="1" as="geometry">
            <mxPoint x="763" y="290" as="targetPoint" />
            <mxPoint x="10" y="-10" as="offset" />
          </mxGeometry>
        </mxCell>
        <mxCell id="pYvZ6EQq_U6aykrmB1s--119" value="B3" style="edgeStyle=none;rounded=0;orthogonalLoop=1;jettySize=auto;html=1;exitX=0.75;exitY=0;exitDx=0;exitDy=0;endArrow=none;startFill=1;startArrow=classic;fontSize=15;" parent="1" source="pYvZ6EQq_U6aykrmB1s--72" edge="1">
          <mxGeometry x="1" y="10" relative="1" as="geometry">
            <mxPoint x="788" y="290" as="targetPoint" />
            <mxPoint x="10" y="-10" as="offset" />
          </mxGeometry>
        </mxCell>
        <mxCell id="pYvZ6EQq_U6aykrmB1s--72" value="Full&lt;div&gt;Adder&lt;/div&gt;" style="whiteSpace=wrap;html=1;aspect=fixed;fontSize=15;fillColor=#dae8fc;strokeColor=#6c8ebf;" parent="1" vertex="1">
          <mxGeometry x="750" y="380" width="50" height="50" as="geometry" />
        </mxCell>
        <mxCell id="pYvZ6EQq_U6aykrmB1s--87" style="edgeStyle=none;rounded=0;orthogonalLoop=1;jettySize=auto;html=1;exitX=0;exitY=0.5;exitDx=0;exitDy=0;entryX=1;entryY=0.5;entryDx=0;entryDy=0;endArrow=none;startFill=0;fontSize=15;" parent="1" source="pYvZ6EQq_U6aykrmB1s--73" target="pYvZ6EQq_U6aykrmB1s--72" edge="1">
          <mxGeometry relative="1" as="geometry" />
        </mxCell>
        <mxCell id="pYvZ6EQq_U6aykrmB1s--97" style="edgeStyle=none;rounded=0;orthogonalLoop=1;jettySize=auto;html=1;exitX=0.5;exitY=1;exitDx=0;exitDy=0;fontSize=15;" parent="1" source="pYvZ6EQq_U6aykrmB1s--73" edge="1">
          <mxGeometry relative="1" as="geometry">
            <mxPoint x="865" y="580" as="targetPoint" />
          </mxGeometry>
        </mxCell>
        <mxCell id="pYvZ6EQq_U6aykrmB1s--100" value="S2" style="edgeLabel;html=1;align=center;verticalAlign=middle;resizable=0;points=[];fontSize=15;" parent="pYvZ6EQq_U6aykrmB1s--97" vertex="1" connectable="0">
          <mxGeometry x="0.64" relative="1" as="geometry">
            <mxPoint y="35" as="offset" />
          </mxGeometry>
        </mxCell>
        <mxCell id="pYvZ6EQq_U6aykrmB1s--116" value="A2" style="edgeStyle=none;rounded=0;orthogonalLoop=1;jettySize=auto;html=1;exitX=0.25;exitY=0;exitDx=0;exitDy=0;endArrow=none;startFill=1;startArrow=classic;fontSize=15;" parent="1" source="pYvZ6EQq_U6aykrmB1s--73" edge="1">
          <mxGeometry x="1" y="10" relative="1" as="geometry">
            <mxPoint x="853" y="290" as="targetPoint" />
            <mxPoint x="10" y="-10" as="offset" />
          </mxGeometry>
        </mxCell>
        <mxCell id="pYvZ6EQq_U6aykrmB1s--117" value="B2" style="edgeStyle=none;rounded=0;orthogonalLoop=1;jettySize=auto;html=1;exitX=0.75;exitY=0;exitDx=0;exitDy=0;endArrow=none;startFill=1;startArrow=classic;fontSize=15;" parent="1" source="pYvZ6EQq_U6aykrmB1s--73" edge="1">
          <mxGeometry x="1" y="10" relative="1" as="geometry">
            <mxPoint x="878" y="290" as="targetPoint" />
            <mxPoint x="10" y="-10" as="offset" />
          </mxGeometry>
        </mxCell>
        <mxCell id="pYvZ6EQq_U6aykrmB1s--73" value="Full&lt;div&gt;Adder&lt;/div&gt;" style="whiteSpace=wrap;html=1;aspect=fixed;fontSize=15;fillColor=#dae8fc;strokeColor=#6c8ebf;" parent="1" vertex="1">
          <mxGeometry x="840" y="380" width="50" height="50" as="geometry" />
        </mxCell>
        <mxCell id="pYvZ6EQq_U6aykrmB1s--86" style="edgeStyle=none;rounded=0;orthogonalLoop=1;jettySize=auto;html=1;exitX=0;exitY=0.5;exitDx=0;exitDy=0;entryX=1;entryY=0.5;entryDx=0;entryDy=0;endArrow=none;startFill=0;fontSize=15;" parent="1" source="pYvZ6EQq_U6aykrmB1s--74" target="pYvZ6EQq_U6aykrmB1s--73" edge="1">
          <mxGeometry relative="1" as="geometry" />
        </mxCell>
        <mxCell id="pYvZ6EQq_U6aykrmB1s--98" style="edgeStyle=none;rounded=0;orthogonalLoop=1;jettySize=auto;html=1;exitX=0.5;exitY=1;exitDx=0;exitDy=0;fontSize=15;" parent="1" source="pYvZ6EQq_U6aykrmB1s--74" edge="1">
          <mxGeometry relative="1" as="geometry">
            <mxPoint x="955" y="580" as="targetPoint" />
          </mxGeometry>
        </mxCell>
        <mxCell id="pYvZ6EQq_U6aykrmB1s--101" value="S1" style="edgeLabel;html=1;align=center;verticalAlign=middle;resizable=0;points=[];fontSize=15;" parent="pYvZ6EQq_U6aykrmB1s--98" vertex="1" connectable="0">
          <mxGeometry x="0.28" relative="1" as="geometry">
            <mxPoint y="63" as="offset" />
          </mxGeometry>
        </mxCell>
        <mxCell id="pYvZ6EQq_U6aykrmB1s--114" value="A1" style="edgeStyle=none;rounded=0;orthogonalLoop=1;jettySize=auto;html=1;exitX=0.25;exitY=0;exitDx=0;exitDy=0;endArrow=none;startFill=1;startArrow=classic;fontSize=15;" parent="1" source="pYvZ6EQq_U6aykrmB1s--74" edge="1">
          <mxGeometry x="1" y="10" relative="1" as="geometry">
            <mxPoint x="943" y="290" as="targetPoint" />
            <mxPoint x="10" y="-10" as="offset" />
          </mxGeometry>
        </mxCell>
        <mxCell id="pYvZ6EQq_U6aykrmB1s--115" value="B1" style="edgeStyle=none;rounded=0;orthogonalLoop=1;jettySize=auto;html=1;exitX=0.75;exitY=0;exitDx=0;exitDy=0;endArrow=none;startFill=1;startArrow=classic;fontSize=15;" parent="1" source="pYvZ6EQq_U6aykrmB1s--74" edge="1">
          <mxGeometry x="1" y="-10" relative="1" as="geometry">
            <mxPoint x="968" y="290" as="targetPoint" />
            <mxPoint x="-8" y="-10" as="offset" />
          </mxGeometry>
        </mxCell>
        <mxCell id="pYvZ6EQq_U6aykrmB1s--74" value="Full&lt;div&gt;Adder&lt;/div&gt;" style="whiteSpace=wrap;html=1;aspect=fixed;fontSize=15;fillColor=#dae8fc;strokeColor=#6c8ebf;" parent="1" vertex="1">
          <mxGeometry x="930" y="380" width="50" height="50" as="geometry" />
        </mxCell>
        <mxCell id="pYvZ6EQq_U6aykrmB1s--85" style="edgeStyle=none;rounded=0;orthogonalLoop=1;jettySize=auto;html=1;exitX=0;exitY=0.5;exitDx=0;exitDy=0;entryX=1;entryY=0.5;entryDx=0;entryDy=0;endArrow=none;startFill=0;fontSize=15;" parent="1" source="pYvZ6EQq_U6aykrmB1s--75" target="pYvZ6EQq_U6aykrmB1s--74" edge="1">
          <mxGeometry relative="1" as="geometry" />
        </mxCell>
        <mxCell id="pYvZ6EQq_U6aykrmB1s--88" style="edgeStyle=none;rounded=0;orthogonalLoop=1;jettySize=auto;html=1;exitX=1;exitY=0.5;exitDx=0;exitDy=0;startArrow=block;startFill=1;endArrow=none;fontSize=15;" parent="1" source="pYvZ6EQq_U6aykrmB1s--75" edge="1">
          <mxGeometry relative="1" as="geometry">
            <mxPoint x="1100" y="405" as="targetPoint" />
          </mxGeometry>
        </mxCell>
        <mxCell id="pYvZ6EQq_U6aykrmB1s--103" value="Cin" style="edgeLabel;html=1;align=center;verticalAlign=middle;resizable=0;points=[];fontSize=15;" parent="pYvZ6EQq_U6aykrmB1s--88" vertex="1" connectable="0">
          <mxGeometry x="0.4" y="4" relative="1" as="geometry">
            <mxPoint y="-11" as="offset" />
          </mxGeometry>
        </mxCell>
        <mxCell id="pYvZ6EQq_U6aykrmB1s--99" style="edgeStyle=none;rounded=0;orthogonalLoop=1;jettySize=auto;html=1;exitX=0.5;exitY=1;exitDx=0;exitDy=0;fontSize=15;" parent="1" source="pYvZ6EQq_U6aykrmB1s--75" edge="1">
          <mxGeometry relative="1" as="geometry">
            <mxPoint x="1045" y="580" as="targetPoint" />
          </mxGeometry>
        </mxCell>
        <mxCell id="pYvZ6EQq_U6aykrmB1s--102" value="S0" style="edgeLabel;html=1;align=center;verticalAlign=middle;resizable=0;points=[];fontSize=15;" parent="pYvZ6EQq_U6aykrmB1s--99" vertex="1" connectable="0">
          <mxGeometry x="0.32" relative="1" as="geometry">
            <mxPoint y="60" as="offset" />
          </mxGeometry>
        </mxCell>
        <mxCell id="pYvZ6EQq_U6aykrmB1s--112" value="A0" style="edgeStyle=none;rounded=0;orthogonalLoop=1;jettySize=auto;html=1;exitX=0.25;exitY=0;exitDx=0;exitDy=0;fontSize=15;endArrow=none;startFill=1;startArrow=classic;" parent="1" source="pYvZ6EQq_U6aykrmB1s--75" edge="1">
          <mxGeometry x="1" y="10" relative="1" as="geometry">
            <mxPoint x="1033" y="290" as="targetPoint" />
            <mxPoint x="10" y="-10" as="offset" />
          </mxGeometry>
        </mxCell>
        <mxCell id="pYvZ6EQq_U6aykrmB1s--113" value="B0" style="edgeStyle=none;rounded=0;orthogonalLoop=1;jettySize=auto;html=1;exitX=0.75;exitY=0;exitDx=0;exitDy=0;fontSize=15;endArrow=none;startFill=1;startArrow=classic;" parent="1" source="pYvZ6EQq_U6aykrmB1s--75" edge="1">
          <mxGeometry x="1" y="10" relative="1" as="geometry">
            <mxPoint x="1058" y="290" as="targetPoint" />
            <mxPoint x="10" y="-10" as="offset" />
          </mxGeometry>
        </mxCell>
        <mxCell id="pYvZ6EQq_U6aykrmB1s--75" value="Full&lt;div&gt;Adder&lt;/div&gt;" style="whiteSpace=wrap;html=1;aspect=fixed;fontSize=15;fillColor=#dae8fc;strokeColor=#6c8ebf;" parent="1" vertex="1">
          <mxGeometry x="1020" y="380" width="50" height="50" as="geometry" />
        </mxCell>
        <mxCell id="pYvZ6EQq_U6aykrmB1s--77" value="" style="endArrow=none;html=1;rounded=0;startArrow=none;startFill=0;fontSize=15;" parent="1" edge="1">
          <mxGeometry width="50" height="50" relative="1" as="geometry">
            <mxPoint x="200" y="350" as="sourcePoint" />
            <mxPoint x="570" y="350" as="targetPoint" />
          </mxGeometry>
        </mxCell>
        <mxCell id="pYvZ6EQq_U6aykrmB1s--92" value="S7" style="edgeStyle=none;rounded=0;orthogonalLoop=1;jettySize=auto;html=1;exitX=1;exitY=0.5;exitDx=0;exitDy=-5;exitPerimeter=0;fontSize=15;horizontal=1;" parent="1" edge="1">
          <mxGeometry x="1" y="10" relative="1" as="geometry">
            <mxPoint x="267" y="580" as="targetPoint" />
            <mxPoint x="267" y="568" as="sourcePoint" />
            <mxPoint x="-10" y="10" as="offset" />
          </mxGeometry>
        </mxCell>
        <mxCell id="pYvZ6EQq_U6aykrmB1s--93" value="S6" style="edgeStyle=none;rounded=0;orthogonalLoop=1;jettySize=auto;html=1;exitX=1;exitY=0.5;exitDx=0;exitDy=-5;exitPerimeter=0;fontSize=15;horizontal=1;" parent="1" edge="1">
          <mxGeometry x="1" y="10" relative="1" as="geometry">
            <mxPoint x="387" y="580" as="targetPoint" />
            <mxPoint x="387" y="568" as="sourcePoint" />
            <mxPoint x="-10" y="10" as="offset" />
          </mxGeometry>
        </mxCell>
        <mxCell id="pYvZ6EQq_U6aykrmB1s--94" value="S5" style="edgeStyle=none;rounded=0;orthogonalLoop=1;jettySize=auto;html=1;exitX=1;exitY=0.5;exitDx=0;exitDy=-5;exitPerimeter=0;fontSize=15;horizontal=1;" parent="1" edge="1">
          <mxGeometry x="1" y="10" relative="1" as="geometry">
            <mxPoint x="507" y="580" as="targetPoint" />
            <mxPoint x="507" y="568" as="sourcePoint" />
            <mxPoint x="-10" y="10" as="offset" />
          </mxGeometry>
        </mxCell>
        <mxCell id="pYvZ6EQq_U6aykrmB1s--95" value="S4" style="edgeStyle=none;rounded=0;orthogonalLoop=1;jettySize=auto;html=1;exitX=1;exitY=0.5;exitDx=0;exitDy=-5;exitPerimeter=0;fontSize=15;horizontal=1;" parent="1" edge="1">
          <mxGeometry x="1" y="10" relative="1" as="geometry">
            <mxPoint x="627" y="580" as="targetPoint" />
            <mxPoint x="627" y="568" as="sourcePoint" />
            <mxPoint x="-10" y="10" as="offset" />
          </mxGeometry>
        </mxCell>
      </root>
    </mxGraphModel>
  </diagram>
</mxfile>
